<?xml version="1.0" encoding="UTF-8" standalone="no"?>
<!-- Created with Inkscape (http://www.inkscape.org/) -->

<svg xmlns:dc="http://purl.org/dc/elements/1.1/" xmlns:cc="http://creativecommons.org/ns#" xmlns:rdf="http://www.w3.org/1999/02/22-rdf-syntax-ns#" xmlns:svg="http://www.w3.org/2000/svg" xmlns="http://www.w3.org/2000/svg" xmlns:sodipodi="http://sodipodi.sourceforge.net/DTD/sodipodi-0.dtd" xmlns:inkscape="http://www.inkscape.org/namespaces/inkscape" width="10mm" height="10mm" viewBox="0 0 10 10" version="1.1" id="svg8" inkscape:version="0.92.1 r15371" sodipodi:docname="nav-i-3.svg">
  <defs id="defs2" />
  <sodipodi:namedview id="base" pagecolor="#ffffff" bordercolor="#666666" borderopacity="1.0" inkscape:pageopacity="0.0" inkscape:pageshadow="2" inkscape:zoom="13.42619" inkscape:cx="25.055051" inkscape:cy="10.588038" inkscape:document-units="mm" inkscape:current-layer="layer1" showgrid="false" inkscape:window-width="1920" inkscape:window-height="1017" inkscape:window-x="-8" inkscape:window-y="-8" inkscape:window-maximized="1" inkscape:snap-center="true" />
  <metadata id="metadata5">
    <rdf:RDF>
      <cc:Work rdf:about="">
        <dc:format>image/svg+xml</dc:format>
        <dc:type rdf:resource="http://purl.org/dc/dcmitype/StillImage" />
        <dc:title></dc:title>
      </cc:Work>
    </rdf:RDF>
  </metadata>
  <g inkscape:label="Layer 1" inkscape:groupmode="layer" id="layer1" transform="translate(0,-287)">
    <path style="color:#000000;font-style:normal;font-variant:normal;font-weight:normal;font-stretch:normal;font-size:medium;line-height:normal;font-family:sans-serif;font-variant-ligatures:normal;font-variant-position:normal;font-variant-caps:normal;font-variant-numeric:normal;font-variant-alternates:normal;font-feature-settings:normal;text-indent:0;text-align:start;text-decoration:none;text-decoration-line:none;text-decoration-style:solid;text-decoration-color:#000000;letter-spacing:normal;word-spacing:normal;text-transform:none;writing-mode:lr-tb;direction:ltr;text-orientation:mixed;dominant-baseline:auto;baseline-shift:baseline;text-anchor:start;white-space:normal;shape-padding:0;clip-rule:nonzero;display:inline;overflow:visible;visibility:visible;opacity:1;isolation:auto;mix-blend-mode:normal;color-interpolation:sRGB;color-interpolation-filters:linearRGB;solid-color:#000000;solid-opacity:1;vector-effect:none;fill:#000000;fill-opacity:1;fill-rule:nonzero;stroke:none;stroke-width:1;stroke-linecap:round;stroke-linejoin:round;stroke-miterlimit:4;stroke-dasharray:none;stroke-dashoffset:0;stroke-opacity:1;color-rendering:auto;image-rendering:auto;shape-rendering:auto;text-rendering:auto;enable-background:accumulate" d="m 21.674647,288.30092 a 0.50005001,0.50005001 0 1 0 0,0.99994 h 1.146183 l 1.16427,4.8829 a 0.50005001,0.50005001 0 0 0 0.486275,0.38448 h 5.30872 a 0.50005001,0.50005001 0 0 0 0.488343,-0.39223 l 0.886767,-4.00595 a 0.50005001,0.50005001 0 0 0 -0.488342,-0.60927 h -4.537191 a 0.50005001,0.50005001 0 1 0 0,0.99994 h 3.913973 l -0.666109,3.00757 h -4.51187 l -1.161686,-4.88291 a 0.50005001,0.50005001 0 0 0 -0.486275,-0.38447 z m 2.109948,6.81612 a 0.50000003,0.49999756 0 0 0 -0.499711,0.49971 0.50000003,0.49999756 0 0 0 0.499711,0.50023 0.50000003,0.49999756 0 0 0 0.500228,-0.50023 0.50000003,0.49999756 0 0 0 -0.500228,-0.49971 z m 6.507614,0 a 0.50000003,0.49999756 0 0 0 -0.500228,0.49971 0.50000003,0.49999756 0 0 0 0.500228,0.50023 0.50000003,0.49999756 0 0 0 0.500227,-0.50023 0.50000003,0.49999756 0 0 0 -0.500227,-0.49971 z" id="path4487" inkscape:connector-curvature="0" />
    <g id="g4540" transform="translate(10.583333,0.37442368)">
      <path sodipodi:nodetypes="cccccc" inkscape:connector-curvature="0" id="path4510" d="m 7.5896622,290.40551 -1.4554734,1.27844 -3.355278,-2.94716 h 6.710556 v 5.89433 H 0.52150461" style="opacity:1;vector-effect:none;fill:none;fill-opacity:1;stroke:#000000;stroke-width:1;stroke-linecap:round;stroke-linejoin:round;stroke-miterlimit:4;stroke-dasharray:none;stroke-dashoffset:0;stroke-opacity:1;paint-order:stroke markers fill" />
      <circle r="0.5" cy="290.39777" cx="0.51438338" id="path4528" style="opacity:1;vector-effect:none;fill:#000000;fill-opacity:1;fill-rule:nonzero;stroke:none;stroke-width:1;stroke-linecap:round;stroke-linejoin:round;stroke-miterlimit:4;stroke-dasharray:none;stroke-dashoffset:0;stroke-opacity:1;paint-order:stroke markers fill" />
      <path inkscape:connector-curvature="0" id="path4530" d="M 0.52150462,292.51444 H 3.0297338" style="opacity:1;vector-effect:none;fill:none;fill-opacity:1;stroke:#000000;stroke-width:1;stroke-linecap:round;stroke-linejoin:round;stroke-miterlimit:4;stroke-dasharray:none;stroke-dashoffset:0;stroke-opacity:1;paint-order:stroke markers fill" />
    </g>
    <path style="opacity:1;vector-effect:none;fill:none;fill-opacity:1;fill-rule:nonzero;stroke:#000000;stroke-width:1;stroke-linecap:round;stroke-linejoin:round;stroke-miterlimit:4;stroke-dasharray:none;stroke-dashoffset:0;stroke-opacity:1;paint-order:stroke markers fill" d="m 4.0398343,295.7189 h 4.6356049 c -1.382e-4,-1.47856 -0.8862843,-2.81307 -2.2489583,-3.38687 0.5065209,-0.42249 0.7996796,-1.0478 0.800468,-1.70739 -5.27e-5,-1.22977 -0.9969656,-2.22669 -2.2267372,-2.22674 -1.2299736,-2.3e-4 -2.2272016,0.99677 -2.2272543,2.22674 2.53e-4,0.66093 0.2940866,1.2876 0.8020182,1.71049 -1.3620408,0.57304 -2.2484321,1.90609 -2.2499919,3.38377" id="path4542" inkscape:connector-curvature="0" sodipodi:nodetypes="cccccccc" />
  </g>
</svg>
