<?xml version="1.0" encoding="UTF-8" standalone="no"?>
<!-- Created with Inkscape (http://www.inkscape.org/) -->

<svg xmlns:dc="http://purl.org/dc/elements/1.1/" xmlns:cc="http://creativecommons.org/ns#" xmlns:rdf="http://www.w3.org/1999/02/22-rdf-syntax-ns#" xmlns:svg="http://www.w3.org/2000/svg" xmlns="http://www.w3.org/2000/svg" xmlns:sodipodi="http://sodipodi.sourceforge.net/DTD/sodipodi-0.dtd" xmlns:inkscape="http://www.inkscape.org/namespaces/inkscape" width="10mm" height="10mm" viewBox="0 0 10 10" version="1.1" id="svg8" inkscape:version="0.92.1 r15371" sodipodi:docname="nav-i-1.svg">
  <defs id="defs2" />
  <sodipodi:namedview id="base" pagecolor="#ffffff" bordercolor="#666666" borderopacity="1.0" inkscape:pageopacity="0.0" inkscape:pageshadow="2" inkscape:zoom="18.9875" inkscape:cx="15.14255" inkscape:cy="18.887552" inkscape:document-units="mm" inkscape:current-layer="layer1" showgrid="false" inkscape:window-width="1920" inkscape:window-height="1017" inkscape:window-x="-8" inkscape:window-y="-8" inkscape:window-maximized="1" />
  <metadata id="metadata5">
    <rdf:RDF>
      <cc:Work rdf:about="">
        <dc:format>image/svg+xml</dc:format>
        <dc:type rdf:resource="http://purl.org/dc/dcmitype/StillImage" />
        <dc:title></dc:title>
      </cc:Work>
    </rdf:RDF>
  </metadata>
  <g inkscape:label="Layer 1" inkscape:groupmode="layer" id="layer1" transform="translate(0,-287)">
    <path style="color:#000000;font-style:normal;font-variant:normal;font-weight:normal;font-stretch:normal;font-size:medium;line-height:normal;font-family:sans-serif;font-variant-ligatures:normal;font-variant-position:normal;font-variant-caps:normal;font-variant-numeric:normal;font-variant-alternates:normal;font-feature-settings:normal;text-indent:0;text-align:start;text-decoration:none;text-decoration-line:none;text-decoration-style:solid;text-decoration-color:#000000;letter-spacing:normal;word-spacing:normal;text-transform:none;writing-mode:lr-tb;direction:ltr;text-orientation:mixed;dominant-baseline:auto;baseline-shift:baseline;text-anchor:start;white-space:normal;shape-padding:0;clip-rule:nonzero;display:inline;overflow:visible;visibility:visible;opacity:1;isolation:auto;mix-blend-mode:normal;color-interpolation:sRGB;color-interpolation-filters:linearRGB;solid-color:#000000;solid-opacity:1;vector-effect:none;fill:#000000;fill-opacity:1;fill-rule:nonzero;stroke:none;stroke-width:1;stroke-linecap:round;stroke-linejoin:round;stroke-miterlimit:4;stroke-dasharray:none;stroke-dashoffset:0;stroke-opacity:1;color-rendering:auto;image-rendering:auto;shape-rendering:auto;text-rendering:auto;enable-background:accumulate" d="m 0.50797933,288.30092 a 0.50005001,0.50005001 0 1 0 0,0.99994 H 1.6541626 l 1.16427,4.8829 a 0.50005001,0.50005001 0 0 0 0.4862751,0.38448 H 8.6134278 A 0.50005001,0.50005001 0 0 0 9.10177,294.17601 l 0.8867674,-4.00595 A 0.50005001,0.50005001 0 0 0 9.5001952,289.56079 H 4.9630044 a 0.50005001,0.50005001 0 1 0 0,0.99994 h 3.913973 L 8.2108682,293.5683 H 3.698999 l -1.1616862,-4.88291 a 0.50005001,0.50005001 0 0 0 -0.4862752,-0.38447 z m 2.10994867,6.81612 a 0.50000003,0.49999756 0 0 0 -0.4997111,0.49971 0.50000003,0.49999756 0 0 0 0.4997111,0.50023 0.50000003,0.49999756 0 0 0 0.5002278,-0.50023 0.50000003,0.49999756 0 0 0 -0.5002278,-0.49971 z m 6.507613,0 a 0.50000003,0.49999756 0 0 0 -0.5002279,0.49971 0.50000003,0.49999756 0 0 0 0.5002279,0.50023 0.50000003,0.49999756 0 0 0 0.5002278,-0.50023 0.50000003,0.49999756 0 0 0 -0.5002278,-0.49971 z" id="path4487" inkscape:connector-curvature="0" />
  </g>
</svg>
